<?xml version="1.0" encoding="utf-8"?>
<svg width="1440px" height="328px" viewBox="0 0 1440 328" version="1.1" xmlns:xlink="http://www.w3.org/1999/xlink" xmlns="http://www.w3.org/2000/svg">
  <desc>Created with Lunacy</desc>
  <g id="svg">
    <path d="M0 6.45246L68.8 6.45246L68.8 64.5246L137.6 64.5246L137.6 127.974L206.4 127.974L206.4 74.2033L273.6 74.2033L273.6 22.5836L342.4 22.5836L342.4 110.767L411.2 110.767L411.2 70.9771L480 70.9771L480 129.049L548.8 129.049L548.8 86.0328L617.6 86.0328L617.6 55.9213L686.4 55.9213L686.4 73.1279L753.6 73.1279L753.6 43.0164L822.4 43.0164L822.4 77.4295L891.2 77.4295L891.2 88.1836L960 88.1836L960 62.3738L1028.8 62.3738L1028.8 43.0164L1097.6 43.0164L1097.6 127.974L1166.4 127.974L1166.4 46.2426L1233.6 46.2426L1233.6 92.4853L1302.4 92.4853L1302.4 0L1371.2 0L1371.2 63.4492L1440 63.4492L1440 84.9574L1440 328L1371.2 328L1302.4 328L1233.6 328L1166.4 328L1097.6 328L1028.8 328L960 328L891.2 328L822.4 328L753.6 328L686.4 328L617.6 328L548.8 328L480 328L411.2 328L342.4 328L273.6 328L206.4 328L137.6 328L68.8 328L0 328L0 6.45246L0 6.45246Z" id="Shape" fill="#BF89FF" stroke="none" />
  </g>
</svg>