<?xml version="1.0" encoding="utf-8"?>
<svg width="1440px" height="242px" viewBox="0 0 1440 242" version="1.1" xmlns:xlink="http://www.w3.org/1999/xlink" xmlns="http://www.w3.org/2000/svg">
  <desc>Created with Lunacy</desc>
  <g id="svg">
    <path d="M0 57.0044L68.8 57.0044L68.8 0L137.6 0L206.4 0L206.4 102.178L273.6 102.178L273.6 88.1956L342.4 88.1956L342.4 79.5911L411.2 79.5911L411.2 60.2311L480 60.2311L480 114.009L548.8 114.009L548.8 122.613L617.6 122.613L617.6 2.15111L686.4 2.15111L686.4 24.7378L753.6 24.7378L753.6 133.369L822.4 133.369L822.4 20.4356L891.2 20.4356L891.2 41.9467L960 41.9467L960 122.613L1028.8 122.613L1028.8 82.8178L1097.6 82.8178L1097.6 94.6489L1166.4 94.6489L1166.4 52.7022L1233.6 52.7022L1233.6 32.2667L1302.4 32.2667L1302.4 48.4L1371.2 48.4L1371.2 27.9644L1440 27.9644L1440 126.916L1440 242L1371.2 242L1302.4 242L1233.6 242L1166.4 242L1097.6 242L1028.8 242L960 242L891.2 242L822.4 242L753.6 242L686.4 242L617.6 242L548.8 242L480 242L411.2 242L342.4 242L273.6 242L206.4 242L137.6 242L68.8 242L0 242L0 57.0044L0 57.0044Z" id="Shape" fill="#33EDEE" stroke="none" />
  </g>
</svg>