<?xml version="1.0" encoding="utf-8"?>
<svg width="1440px" height="155px" viewBox="0 0 1440 155" version="1.1" xmlns:xlink="http://www.w3.org/1999/xlink" xmlns="http://www.w3.org/2000/svg">
  <desc>Created with Lunacy</desc>
  <g id="svg">
    <path d="M0 67.8125L68.8 67.8125L68.8 54.8958L137.6 54.8958L137.6 19.375L206.4 19.375L206.4 44.1319L273.6 44.1319L273.6 9.6875L342.4 9.6875L342.4 0L411.2 0L411.2 92.5694L480 92.5694L548.8 92.5694L548.8 1.07639L617.6 1.07639L617.6 34.4444L686.4 34.4444L686.4 72.118L753.6 72.118L753.6 48.4375L822.4 48.4375L822.4 60.2778L891.2 60.2778L891.2 41.9792L960 41.9792L960 66.7361L1028.8 66.7361L1028.8 63.5069L1097.6 63.5069L1097.6 49.5139L1166.4 49.5139L1166.4 19.375L1233.6 19.375L1233.6 63.5069L1302.4 63.5069L1302.4 89.3403L1371.2 89.3403L1371.2 55.9722L1440 55.9722L1440 72.118L1440 155L1371.2 155L1302.4 155L1233.6 155L1166.4 155L1097.6 155L1028.8 155L960 155L891.2 155L822.4 155L753.6 155L686.4 155L617.6 155L548.8 155L480 155L411.2 155L342.4 155L273.6 155L206.4 155L137.6 155L68.8 155L0 155L0 67.8125L0 67.8125Z" id="Shape" fill="#FF89F5" stroke="none" />
  </g>
</svg>