<?xml version="1.0" encoding="utf-8"?>
<svg width="1438px" height="397px" viewBox="0 0 1438 397" version="1.1" xmlns:xlink="http://www.w3.org/1999/xlink" xmlns="http://www.w3.org/2000/svg">
  <desc>Created with Lunacy</desc>
  <g id="svg">
    <path d="M0 97.9052L68.7044 97.9052L68.7044 9.68293L137.409 9.68293L137.409 133.409L206.113 133.409L206.113 93.6016L273.22 93.6016L273.22 109.74L341.924 109.74L341.924 135.561L410.629 135.561L410.629 111.892L479.333 111.892L479.333 88.2222L548.038 88.2222L548.038 124.802L616.742 124.802L616.742 11.8347L685.447 11.8347L685.447 87.1463L752.553 87.1463L752.553 4.30352L821.258 4.30352L821.258 48.4146L889.962 48.4146L889.962 135.561L958.667 135.561L958.667 60.2493L1027.37 60.2493L1027.37 124.802L1096.08 124.802L1096.08 69.9323L1164.78 69.9323L1164.78 50.5664L1231.89 50.5664L1231.89 0L1300.59 0L1300.59 22.5935L1369.3 22.5935L1369.3 129.106L1438 129.106L1438 23.6694L1438 397L1369.3 397L1300.59 397L1231.89 397L1164.78 397L1096.08 397L1027.37 397L958.667 397L889.962 397L821.258 397L752.553 397L685.447 397L616.742 397L548.038 397L479.333 397L410.629 397L341.924 397L273.22 397L206.113 397L137.409 397L68.7044 397L0 397L0 97.9052L0 97.9052Z" id="Shape" fill="#9E49FF" stroke="none" />
  </g>
</svg>