<?xml version="1.0" encoding="utf-8"?>
<svg width="384px" height="77px" viewBox="0 0 384 77" version="1.1" xmlns:xlink="http://www.w3.org/1999/xlink" xmlns="http://www.w3.org/2000/svg">
  <desc>Created with Lunacy</desc>
  <g id="svg">
    <path d="M0 0L384 0L384 77L0 77L0 0Z" id="Background" fill="none" stroke="none" />
    <path d="M296.857 21.528C297.289 15.984 302.113 13.608 305.497 9.864C306.433 8.784 307.441 6.912 307.441 5.256C307.441 3.024 305.497 1.58399 303.193 1.58399C300.889 1.58399 298.297 2.88 297.217 4.68C295.705 2.232 293.689 0 290.809 0C290.377 0 289.945 0.071999 289.513 0.143998C286.705 0.792002 285.481 3.816 285.481 6.192C285.481 12.312 292.969 18.36 296.857 21.528ZM89.9038 62.64C88.5358 63.072 87.0958 63.288 85.6558 63.288L84.9358 63.288C84.6478 63.288 84.3598 63.216 83.9998 63.144C81.0478 62.928 77.8798 61.128 76.1518 58.464L76.0798 58.392C75.2878 57.168 74.8558 55.584 74.6398 54.144C74.2798 52.272 74.1358 50.328 74.0638 48.384C73.9918 46.08 73.9918 43.776 73.9918 41.544C74.1358 37.728 74.2078 33.336 74.5678 29.448L71.1118 29.448C68.8798 29.304 67.0078 28.152 67.0078 25.92C67.0078 23.832 68.9518 22.536 71.1838 22.536L75.0718 22.536C75.0718 21.888 75.1438 21.312 75.2158 20.736C75.3598 19.152 75.4318 17.784 75.6478 16.2C75.9358 14.328 77.6638 13.032 79.6798 13.032C82.1278 13.104 83.8558 14.544 83.8558 16.56C83.7838 18.792 83.3518 20.52 83.3518 22.536L89.0398 22.536C89.9758 22.536 90.9118 22.752 91.7038 23.328C92.5678 24.048 93.0718 24.984 93.0718 26.136C92.9998 27.144 92.4958 28.008 91.6318 28.656C90.8398 29.16 89.9758 29.376 89.0398 29.448L82.7758 29.448C82.6318 31.248 82.5598 33.048 82.4878 34.92C82.4158 37.296 82.2718 39.672 82.2718 42.048C82.2718 44.136 82.2718 46.224 82.3438 48.24C82.4158 49.824 82.4878 51.408 82.7758 52.92C82.9198 54.36 83.6398 56.16 85.2238 56.304L85.7278 56.304C87.0958 56.304 88.3198 55.8 89.3278 55.296C90.0478 55.008 90.6958 54.648 91.2718 54.144C91.9918 53.568 92.9278 53.28 93.9358 53.28C96.4558 53.28 98.0398 54.72 98.1118 56.808C98.1118 58.824 95.8078 60.048 93.7198 61.2C92.4958 61.848 91.2718 62.28 89.9038 62.64ZM8.208 62.136C8.136 64.152 6.264 65.52 4.104 65.52C1.872 65.52 0.144 64.08 0 62.136L0 17.64C0.144 15.624 1.944 14.256 4.032 14.256C11.016 14.256 21.096 16.128 25.632 22.248C27.072 24.192 27.648 26.424 27.72 28.8C27.72 32.256 26.568 35.424 24.192 38.088C20.52 42.192 14.328 44.424 8.208 45.432L8.208 62.136ZM130.948 65.52C133.108 65.52 134.98 64.152 135.052 62.136L135.052 45.432C141.172 44.424 147.364 42.192 151.036 38.088C153.412 35.424 154.564 32.256 154.564 28.8C154.492 26.424 153.916 24.192 152.476 22.248C147.94 16.128 137.86 14.256 130.876 14.256C128.788 14.256 126.988 15.624 126.844 17.64L126.844 62.136C126.988 64.08 128.716 65.52 130.948 65.52ZM377.225 61.128C373.481 63.144 369.233 63.72 365.489 63.72C360.593 63.72 354.041 62.568 351.017 58.392C350.657 57.816 350.513 57.24 350.513 56.664C350.513 54.648 352.601 53.208 354.617 53.208C355.913 53.208 357.353 53.856 358.145 54.936C358.505 55.44 359.297 55.8 359.801 55.944C361.457 56.52 363.617 56.736 365.489 56.736C368.081 56.736 371.033 56.304 373.337 54.936C374.705 54.216 375.425 52.776 375.425 51.408C375.425 48.816 373.265 47.232 371.033 45.936C363.185 41.976 354.329 39.888 354.041 32.616C354.041 26.64 357.281 21.888 362.321 19.656C364.337 18.72 366.641 18.36 368.873 18.36C374.345 18.36 379.097 20.736 382.553 24.624C383.129 25.416 383.705 26.28 383.705 27.288C383.705 29.304 381.689 30.744 379.529 30.744C377.729 30.744 376.721 29.952 375.641 28.512C374.129 26.496 371.177 25.344 368.873 25.344C364.265 25.344 362.249 29.16 362.249 32.544C362.465 33.984 364.049 34.776 365.417 35.424C368.153 36.864 371.249 37.944 374.129 39.384C377.513 41.112 380.537 43.2 382.265 46.008C383.273 47.664 383.705 49.464 383.777 51.408C383.777 55.44 381.185 59.04 377.225 61.128ZM8.208 38.304L8.208 21.528C13.392 22.248 19.44 24.12 19.512 28.8C19.512 30.024 19.296 31.248 18.648 32.328C16.632 36.072 12.096 37.512 8.208 38.304ZM135.052 21.528L135.052 38.304C138.94 37.512 143.476 36.072 145.492 32.328C146.14 31.248 146.356 30.024 146.356 28.8C146.284 24.12 140.236 22.248 135.052 21.528ZM65.1628 59.904C60.2668 61.632 55.1548 62.496 49.6108 62.496C43.9948 62.496 38.3068 61.344 34.4908 57.888C31.3948 55.008 30.0268 50.904 30.0268 46.872C30.2428 40.032 32.9788 34.776 38.3068 29.736C42.0508 26.352 46.8748 23.76 52.7068 23.76C58.2508 23.76 63.9388 26.208 65.9548 30.96C66.5308 32.256 66.8188 33.624 66.8188 34.992C66.8188 41.76 60.7708 45.792 53.4988 48.312C51.9868 48.744 50.4748 49.176 48.8908 49.464L48.7468 49.464C46.2268 49.896 43.4188 50.112 40.9708 50.112L38.6668 50.04L38.7388 50.4C39.5308 52.776 41.4748 54.072 43.6348 54.792L43.7068 54.864C45.4348 55.368 46.8028 55.512 48.5308 55.656C51.8428 55.656 55.0828 55.296 58.1068 54.576C59.3308 54.288 60.5548 54 61.6348 53.568L61.7788 53.496C62.3548 53.352 62.9308 53.208 63.4348 53.208C64.8748 53.208 66.1708 53.856 66.8908 54.792L66.9628 54.936C67.3948 55.44 67.5388 56.088 67.5388 56.736C67.5388 58.032 66.6028 59.184 65.3068 59.832L65.1628 59.904ZM190.639 63.864C191.647 63.864 192.583 63.576 193.375 63.072C194.239 62.424 194.743 61.416 194.743 60.336L193.951 27.144C193.879 26.064 193.375 25.2 192.511 24.552C191.575 23.904 190.855 23.76 189.631 23.76C187.831 23.76 185.887 24.912 185.743 26.928C185.311 31.176 184.231 35.928 183.079 39.888C181.927 43.704 180.343 48.168 177.967 51.552C176.455 53.64 174.583 55.944 171.919 55.944C169.831 55.944 168.607 54.072 167.743 52.416C167.023 50.976 166.519 49.464 166.159 47.952C165.223 43.128 165.079 40.248 165.007 35.208C165.007 32.256 165.295 29.736 165.367 27.36C165.367 26.352 164.935 25.416 164.215 24.768C163.423 24.192 162.559 23.904 161.695 23.76C160.615 23.76 159.679 23.904 158.743 24.408C157.879 24.984 157.303 25.848 157.159 26.784C156.871 29.376 156.727 32.544 156.727 35.208C156.727 40.32 157.015 44.856 158.311 50.112C159.391 54.144 161.047 57.6 164.215 60.336C166.519 61.992 169.111 62.856 171.919 62.856C177.967 62.856 182.575 59.112 185.599 54.288L186.319 53.136L186.463 60.84C186.895 62.784 188.695 63.864 190.639 63.864ZM205.155 72.864C205.083 74.88 203.211 76.176 201.051 76.248C199.035 76.248 197.235 75.096 196.875 73.224L196.875 27.144C196.947 25.128 198.891 23.76 200.979 23.76C203.139 23.76 205.083 25.128 205.155 27.144L205.155 34.56C208.323 29.232 213.291 24.624 219.843 23.904C220.707 23.832 221.571 23.76 222.507 23.76C233.307 23.832 237.267 35.928 237.267 46.008C237.267 51.768 234.891 58.032 230.571 61.704C227.331 64.44 223.227 65.52 218.835 65.52C214.011 65.52 209.763 64.224 205.803 62.064C205.443 65.736 205.227 69.408 205.155 72.864ZM247.694 72.864C247.622 74.88 245.75 76.176 243.59 76.248C241.574 76.248 239.774 75.096 239.414 73.224L239.414 27.144C239.486 25.128 241.43 23.76 243.518 23.76C245.678 23.76 247.622 25.128 247.694 27.144L247.694 34.56C250.862 29.232 255.83 24.624 262.382 23.904C263.246 23.832 264.11 23.76 265.046 23.76C275.846 23.832 279.806 35.928 279.806 46.008C279.806 51.768 277.43 58.032 273.11 61.704C269.87 64.44 265.766 65.52 261.374 65.52C256.55 65.52 252.302 64.224 248.342 62.064C247.982 65.736 247.766 69.408 247.694 72.864ZM298.441 60.768C298.369 62.856 296.497 64.152 294.337 64.224C292.177 64.224 290.233 62.856 290.161 60.768L290.161 30.672L288.865 30.672C286.705 30.6 284.761 29.304 284.761 27.144C284.905 25.128 286.777 23.76 288.937 23.76L303.265 23.76C305.425 23.76 307.225 25.128 307.369 27.144C307.297 29.376 305.425 30.6 303.337 30.672L298.441 30.672L298.441 60.768ZM345.569 59.904C340.673 61.632 335.561 62.496 330.017 62.496C324.401 62.496 318.713 61.344 314.897 57.888C311.801 55.008 310.433 50.904 310.433 46.872C310.649 40.032 313.385 34.776 318.713 29.736C322.457 26.352 327.281 23.76 333.113 23.76C338.657 23.76 344.345 26.208 346.361 30.96C346.937 32.256 347.225 33.624 347.225 34.992C347.225 41.76 341.177 45.792 333.905 48.312C332.393 48.744 330.881 49.176 329.297 49.464L329.153 49.464C326.633 49.896 323.825 50.112 321.377 50.112L319.073 50.04L319.145 50.4C319.937 52.776 321.881 54.072 324.041 54.792L324.113 54.864C325.841 55.368 327.209 55.512 328.937 55.656C332.249 55.656 335.489 55.296 338.513 54.576C339.737 54.288 340.961 54 342.041 53.568L342.185 53.496C342.761 53.352 343.337 53.208 343.841 53.208C345.281 53.208 346.577 53.856 347.297 54.792L347.369 54.936C347.801 55.44 347.945 56.088 347.945 56.736C347.945 58.032 347.009 59.184 345.713 59.832L345.569 59.904ZM43.1308 43.2C41.8348 43.2 40.4668 43.2 39.1708 43.128L38.8108 43.056C40.1068 39.24 42.6268 35.064 46.8028 32.616C47.6668 32.112 48.4588 31.824 49.2508 31.392C50.4748 30.96 51.3388 30.672 52.7068 30.672C55.7308 30.672 58.6108 31.968 58.6108 34.776L58.5388 35.496C58.3948 37.512 56.0908 39.384 54.0748 40.32C52.5628 41.112 50.6188 41.976 48.7468 42.336C46.8748 42.768 45.2188 43.128 43.1308 43.2ZM218.835 58.608C218.475 58.608 218.619 58.608 218.259 58.536C214.227 58.32 210.627 56.736 207.027 54.144C207.963 49.032 209.403 43.704 211.851 39.024C214.011 34.92 217.539 30.672 222.507 30.672C225.171 30.672 226.683 33.912 227.475 36.216C228.483 39.384 229.059 42.912 229.059 45.936C228.915 52.056 225.891 58.536 218.835 58.608ZM261.374 58.608C261.014 58.608 261.158 58.608 260.798 58.536C256.766 58.32 253.166 56.736 249.566 54.144C250.502 49.032 251.942 43.704 254.39 39.024C256.55 34.92 260.078 30.672 265.046 30.672C267.71 30.672 269.222 33.912 270.014 36.216C271.022 39.384 271.598 42.912 271.598 45.936C271.454 52.056 268.43 58.536 261.374 58.608ZM323.537 43.2C322.241 43.2 320.873 43.2 319.577 43.128L319.217 43.056C320.513 39.24 323.033 35.064 327.209 32.616C328.073 32.112 328.865 31.824 329.657 31.392C330.881 30.96 331.745 30.672 333.113 30.672C336.137 30.672 339.017 31.968 339.017 34.776L338.945 35.496C338.801 37.512 336.497 39.384 334.481 40.32C332.969 41.112 331.025 41.976 329.153 42.336C327.281 42.768 325.625 43.128 323.537 43.2Z" transform="translate(0 0.479998)" id="Shape" fill="#FF494F" fill-rule="evenodd" stroke="none" />
  </g>
</svg>