<?xml version="1.0" encoding="utf-8"?>
<svg width="32px" height="35px" viewBox="0 0 32 35" version="1.1" xmlns:xlink="http://www.w3.org/1999/xlink" xmlns="http://www.w3.org/2000/svg">
  <desc>Created with Lunacy</desc>
  <defs>
    <path d="M0 0L32 0L32 34.9091L0 34.9091L0 0Z" id="path_1" />
    <clipPath id="mask_1">
      <use xlink:href="#path_1" />
    </clipPath>
  </defs>
  <g id="svg">
    <path d="M0 0L32 0L32 35L0 35L0 0Z" id="Background" fill="none" stroke="none" />
    <g id="Group">
      <path d="M0 0L32 0L32 34.9091L0 34.9091L0 0Z" id="Rectangle" fill="none" stroke="none" />
      <g clip-path="url(#mask_1)">
        <path d="M0 1.3995C0 0.6234 0.572801 0 1.2982 0C2.0237 0 2.6091 0.6234 2.5964 1.3995C2.5964 2.1755 2.0237 2.799 1.2982 2.799C0.585501 2.799 0 2.1755 0 1.3995ZM4.6455 1.3995C4.6455 0.6234 5.2182 0 5.9437 0C6.6564 0 7.2419 0.6234 7.2419 1.3995C7.2419 2.1755 6.6691 2.799 5.9437 2.799C5.231 2.799 4.6455 2.1755 4.6455 1.3995Z" transform="translate(12.2314 15.2798)" id="Shape" fill="#FFFFFF" fill-rule="evenodd" stroke="none" />
        <path d="M2.60909 0L19.6636 0C21.1018 0 22.2727 1.17048 22.2854 2.60813L22.2854 25.2289L19.5364 22.8498L17.9964 21.4376L16.3673 19.9363L17.0418 22.2645L2.60909 22.2645C1.17091 22.2645 0 21.094 0 19.6564L0 2.60813C0 1.17048 1.17091 0 2.60909 0ZM46.9127 8.62592C46.9509 9.17302 47.5364 9.49102 48.4145 9.68192C50.4254 10.0508 52.4364 10.7506 52.3091 13.5114C52.22 15.6997 49.9164 16.8956 47.8418 16.8956C46.4927 16.8956 45.0545 16.2086 43.9982 14.8472L45.8054 13.1551C46.9382 14.5292 49.4327 14.5928 49.5091 13.3841C49.5345 12.748 48.5036 12.3791 47.5745 12.2518C45.7545 11.9719 44.1 10.8142 44.1 8.66412C44.1 6.45032 46.1109 5.27988 48.1854 5.27988C49.5473 5.27988 50.8709 5.66152 52.0418 7.08652L50.1709 8.52412C48.9873 7.26462 46.9636 7.31552 46.9127 8.62592ZM56.1145 13.0406L56.1145 9.14752C56.1145 7.74802 58.6345 7.43002 59.3982 8.82952L61.7273 7.88802C60.8109 5.87782 59.1436 5.2926 57.7564 5.2926C55.4909 5.2926 53.2509 6.60302 53.2509 9.14752L53.2509 13.0406C53.2509 15.6106 55.4909 16.8956 57.7054 16.8956C59.1309 16.8956 60.8363 16.1958 61.7782 14.3638L59.2836 13.2188C58.6727 14.7836 56.1145 14.402 56.1145 13.0406ZM67.2254 5.2926C64.8836 5.2926 62.5545 6.56482 62.5545 9.17302L62.5545 13.0279C62.5545 15.6106 64.8963 16.9083 67.2509 16.9083C69.5927 16.9083 71.9218 15.6106 71.9218 13.0279L71.9218 9.17302C71.9218 6.57762 69.5673 5.2926 67.2254 5.2926ZM29.7436 5.44522L33.9691 5.44522C36.2345 5.44522 38.36 6.60302 38.3473 9.24932L38.3473 13.0406C38.3473 15.636 36.2218 16.7684 33.9564 16.7556L29.7309 16.7556L29.7309 14.0712L34.0582 14.0712C35.0382 14.0712 35.4836 13.575 35.4836 12.8371L35.4836 9.31292C35.4836 8.57502 35.0127 8.11702 34.0582 8.11702L32.5564 8.11702L32.5564 12.7226L29.7436 10.1908L29.7436 5.44522ZM39.8873 16.7429L42.7382 16.7429L42.7382 5.44522L39.8873 5.44522L39.8873 16.7429ZM83.7327 5.44522L87.9582 5.44522C90.2236 5.44522 92.3491 6.60302 92.3491 9.24932L92.3491 13.0406C92.3491 15.636 90.2236 16.7684 87.9582 16.7556L83.72 16.7556L83.72 14.0712L88.0473 14.0712C89.0273 14.0712 89.4727 13.575 89.4727 12.8371L89.4727 9.31292C89.4727 8.57502 89.0018 8.11702 88.0473 8.11702L86.5454 8.11702L86.5454 12.7226L83.7327 10.1908L83.7327 5.44522ZM82.1545 9.17302C82.0909 6.52672 80.2836 5.45802 77.9545 5.45802L73.4364 5.45802L73.4364 16.7556L76.3254 16.7556L76.3254 13.1679L76.8345 13.1679L79.4563 16.7556L83.02 16.7556L79.94 12.8752C81.3018 12.4427 82.1545 11.2595 82.1545 9.17302ZM14.7509 16.4757C14.7509 16.4757 14.2927 15.9287 13.9109 15.4579C15.5782 14.9872 16.2145 13.9567 16.2145 13.9567C15.6927 14.3002 15.1964 14.5419 14.7509 14.7073C14.1145 14.9745 13.5036 15.1399 12.9054 15.2544C11.6836 15.4834 10.5636 15.4198 9.60911 15.2416C8.88361 15.1017 8.26001 14.9109 7.73821 14.6946C7.44541 14.5801 7.12731 14.4401 6.80911 14.262C6.77091 14.2366 6.73271 14.2238 6.69451 14.1984C6.66911 14.1857 6.65641 14.1729 6.64361 14.1729C6.41451 14.0457 6.28731 13.9567 6.28731 13.9567C6.28731 13.9567 6.89821 14.9618 8.51451 15.4452C8.13271 15.9287 7.66181 16.4885 7.66181 16.4885C4.84909 16.3994 3.78 14.5673 3.78 14.5673C3.78 10.5088 5.61271 7.21372 5.61271 7.21372C7.44541 5.85242 9.17641 5.89052 9.17641 5.89052L9.30361 6.04322C7.01271 6.69212 5.96911 7.69712 5.96911 7.69712C5.96911 7.69712 6.24911 7.54452 6.72001 7.34092C8.08181 6.74302 9.16361 6.59032 9.60911 6.53942C9.68541 6.52672 9.74911 6.51392 9.82541 6.51392C10.6018 6.41222 11.48 6.38672 12.3964 6.48852C13.6054 6.62852 14.9036 6.98472 16.2273 7.69712C16.2273 7.69712 15.2218 6.74302 13.0582 6.09412L13.2364 5.89052C13.2364 5.89052 14.98 5.85242 16.8 7.21372C16.8 7.21372 18.6327 10.5088 18.6327 14.5673C18.6324 14.5671 18.6295 14.5715 18.6238 14.5801C18.5154 14.7425 17.4157 16.3914 14.7509 16.4757ZM67.2382 14.262C68.1418 14.262 69.0582 13.8422 69.0582 13.0279L69.0582 9.17302C69.0582 8.29512 68.1163 7.90072 67.1873 7.90072C66.2963 7.90072 65.4054 8.34602 65.4054 9.17302L65.4054 13.0279C65.4054 13.8676 66.3218 14.262 67.2382 14.262ZM76.3254 10.6997L78.0054 10.6997C79.8 10.6997 79.8 8.11702 78.0054 8.11702L76.3254 8.11702L76.3254 10.6997Z" transform="translate(4.69629 4.69458)" id="Shape" fill="#FFFFFF" fill-rule="evenodd" stroke="none" />
      </g>
    </g>
  </g>
</svg>