<?xml version="1.0" encoding="utf-8"?>
<svg width="32px" height="27px" viewBox="0 0 32 27" version="1.1" xmlns:xlink="http://www.w3.org/1999/xlink" xmlns="http://www.w3.org/2000/svg">
  <desc>Created with Lunacy</desc>
  <g id="svg">
    <path d="M0 0L32 0L32 27L0 27L0 0Z" id="Background" fill="none" stroke="none" />
    <path d="M10.0636 25.9865C22.1397 25.9865 28.7436 15.9898 28.7436 7.32096C28.7436 7.03702 28.7378 6.75436 28.7251 6.47299C30.007 5.54699 31.1212 4.39142 32 3.07595C30.8236 3.59843 29.5577 3.95015 28.2297 4.10874C29.5852 3.29658 30.6258 2.01183 31.1168 0.480265C29.8483 1.23168 28.4435 1.77781 26.9478 2.07266C25.7498 0.797544 24.0441 0 22.1555 0C18.5299 0 15.5898 2.93791 15.5898 6.55931C15.5898 7.0741 15.6474 7.57483 15.7601 8.05514C10.3035 7.78079 5.465 5.17034 2.22682 1.20098C1.66298 2.17045 1.33787 3.29661 1.33787 4.49823C1.33787 6.77423 2.49694 8.78348 4.25949 9.95897C3.18235 9.92567 2.1705 9.63017 1.28611 9.13844C1.28514 9.16596 1.28514 9.1928 1.28514 9.22222C1.28514 12.3993 3.5482 15.0519 6.55229 15.653C6.00061 15.8033 5.42017 15.8839 4.82109 15.8839C4.3987 15.8839 3.98717 15.8423 3.58717 15.7656C4.423 18.3721 6.84672 20.269 9.72024 20.322C7.47318 22.0819 4.64252 23.13 1.56605 23.13C1.03677 23.13 0.513893 23.1 0 23.0392C2.90562 24.9002 6.35578 25.986 10.064 25.986" transform="translate(0 0.461426)" id="Shape" fill="#FFFFFF" stroke="none" />
  </g>
</svg>