<?xml version="1.0" encoding="utf-8"?>
<svg width="32px" height="33px" viewBox="0 0 32 33" version="1.1" xmlns:xlink="http://www.w3.org/1999/xlink" xmlns="http://www.w3.org/2000/svg">
  <desc>Created with Lunacy</desc>
  <defs>
    <path d="M0 0L32 0L32 32L0 32L0 0Z" id="path_1" />
    <clipPath id="mask_1">
      <use xlink:href="#path_1" />
    </clipPath>
  </defs>
  <g id="svg">
    <path d="M0 0L32 0L32 33L0 33L0 0Z" id="Background" fill="none" stroke="none" />
    <g id="Group" transform="translate(0 0.45459)">
      <path d="M0 0L32 0L32 32L0 32L0 0Z" id="Rectangle" fill="none" stroke="none" />
      <g clip-path="url(#mask_1)">
        <path d="M32 16C32 24.836 24.8361 32 16 32C7.16395 32 0 24.836 0 16C0 7.16395 7.16395 0 16 0C24.8379 0 32 7.16395 32 16L32 16Z" id="Shape" fill="#FFFFFF" stroke="none" />
        <path d="M0.0228453 6.6857L0.0918951 6.5772L4.25411 0.0659037C4.31491 -0.0293961 4.458 -0.0195961 4.50401 0.0840034C5.19931 1.6424 5.7993 3.5805 5.51821 4.7871C5.39821 5.2835 5.06951 5.9558 4.6996 6.5772C4.65191 6.6676 4.5993 6.7564 4.54341 6.8419C4.5171 6.8813 4.47281 6.9044 4.42511 6.9044L0.144475 6.9044C0.0294251 6.9044 -0.0379548 6.7794 0.0228453 6.6857L0.0228453 6.6857Z" transform="translate(7.871095 9.851807)" id="Shape" fill="#FF494F" stroke="none" />
        <path d="M19.7262 11.3475L19.7262 12.3782C19.7262 12.4374 19.6901 12.49 19.6375 12.513C19.3153 12.6511 18.2123 13.1574 17.7536 13.7952C16.5832 15.4242 15.689 17.7536 13.69 17.7536L5.35077 17.7536C2.39509 17.7536 0 15.3503 0 12.3848L0 12.2894C0 12.2105 0.0641003 12.1464 0.14304 12.1464L4.79177 12.1464C4.88387 12.1464 4.95127 12.2319 4.94307 12.3223C4.91017 12.6248 4.96607 12.9338 5.10907 13.2149C5.38527 13.7755 5.95737 14.1256 6.57547 14.1256L8.87677 14.1256L8.87677 12.3289L6.60167 12.3289C6.48497 12.3289 6.41597 12.1941 6.48337 12.0987C6.50797 12.0609 6.53597 12.0215 6.56557 11.9771C6.78087 11.6714 7.08827 11.1963 7.39407 10.6554C7.60277 10.2905 7.80497 9.90091 7.96777 9.50971C8.00067 9.43901 8.02697 9.36671 8.05327 9.29601C8.09767 9.17101 8.14367 9.05431 8.17657 8.93761C8.20937 8.83901 8.23567 8.73541 8.26197 8.63841C8.33927 8.30641 8.37217 7.95461 8.37217 7.58961C8.37217 7.44661 8.36557 7.29711 8.35247 7.15401C8.34587 6.99791 8.32607 6.84171 8.30637 6.68551C8.29327 6.54741 8.26857 6.41101 8.24227 6.26801C8.20937 6.05921 8.16337 5.85211 8.11077 5.64331L8.09267 5.56441C8.05327 5.42141 8.02037 5.28501 7.97437 5.14201C7.84447 4.69321 7.69487 4.25591 7.53707 3.84661C7.47957 3.68391 7.41377 3.52771 7.34797 3.37151C7.25097 3.13646 7.15237 2.92278 7.06197 2.72057C7.01597 2.62852 6.97647 2.54468 6.93707 2.4592C6.89267 2.36221 6.84667 2.26525 6.80067 2.17316C6.76777 2.10247 6.72987 2.03673 6.70367 1.97099L6.42257 1.45152C6.38307 1.38084 6.44887 1.297 6.52607 1.31837L8.28497 1.7951L8.28997 1.7951C8.29327 1.7951 8.29487 1.79673 8.29657 1.79673L8.52827 1.86084L8.78307 1.93316L8.87677 1.95947L8.87677 0.91399C8.87677 0.40932 9.28117 0 9.78097 0C10.0308 0 10.2577 0.1019 10.4204 0.26795C10.5831 0.43399 10.6851 0.66084 10.6851 0.91399L10.6851 2.46578L10.8725 2.51837C10.8873 2.52331 10.9021 2.52989 10.9152 2.53974C10.9612 2.57426 11.027 2.62525 11.1108 2.68768C11.1766 2.7403 11.2473 2.80441 11.3328 2.87015C11.5021 3.00662 11.7042 3.18251 11.9262 3.38471C11.9853 3.43571 12.0429 3.48821 12.0955 3.54091C12.3815 3.80711 12.7021 4.11951 13.0079 4.46471C13.0933 4.56171 13.1772 4.66031 13.2626 4.76391C13.3481 4.86911 13.4385 4.97271 13.5174 5.07621C13.621 5.21431 13.7328 5.35731 13.8298 5.50691C13.8758 5.57761 13.9284 5.64991 13.9728 5.72061C14.0977 5.90961 14.2078 6.10531 14.3131 6.30091C14.3574 6.39131 14.4035 6.48991 14.4429 6.58691C14.5596 6.84831 14.6517 7.11461 14.7109 7.38091C14.729 7.43841 14.7421 7.50091 14.7487 7.55681L14.7487 7.56991C14.7684 7.64881 14.775 7.73271 14.7815 7.81821C14.8078 8.09101 14.7947 8.36391 14.7355 8.63841C14.7109 8.75521 14.678 8.86531 14.6385 8.98201C14.5991 9.09381 14.5596 9.21051 14.5087 9.32061C14.4101 9.54911 14.2933 9.77761 14.1552 9.99131C14.1109 10.0702 14.0583 10.1541 14.0056 10.233C13.9481 10.3168 13.889 10.3957 13.8363 10.473C13.764 10.5716 13.6867 10.6752 13.6078 10.7672C13.5372 10.8642 13.4648 10.9612 13.3859 11.0467C13.2758 11.1765 13.1706 11.2998 13.0604 11.4182C12.9947 11.4955 12.924 11.5744 12.8517 11.645C12.781 11.7239 12.7086 11.7946 12.6429 11.8604C12.5328 11.9705 12.4407 12.056 12.3634 12.1267L12.1826 12.2927C12.1563 12.3157 12.1218 12.3289 12.0856 12.3289L10.6851 12.3289L10.6851 14.1256L12.4473 14.1256C12.8418 14.1256 13.2166 13.9859 13.5191 13.7295C13.6226 13.639 14.0747 13.2478 14.609 12.6577C14.627 12.6379 14.6501 12.6231 14.6763 12.6166L19.5438 11.2094C19.6342 11.1831 19.7262 11.2522 19.7262 11.3475L19.7262 11.3475Z" transform="translate(6.71973 6.3999)" id="Shape" fill="#FF494F" stroke="none" />
      </g>
    </g>
  </g>
</svg>